<svg data-v-423bf9ae="" xmlns="http://www.w3.org/2000/svg" viewBox="0 0 288 107" class="iconLeft"><!----><!----><!----><g data-v-423bf9ae="" id="2e260093-dc67-42a0-ae10-151cc3434a8a" fill="#1F1E1A" transform="matrix(4.2016807508382215,0,0,4.2016807508382215,100.19755508821522,11.38742541705075)"><path d="M9.73 5.50L9.73 5.50L9.73 5.50Q9.73 6.66 9.06 7.45L9.06 7.45L9.06 7.45Q8.39 8.23 6.92 8.50L6.92 8.50L10.16 12.22L10.16 12.22Q10.50 12.61 10.96 12.82L10.96 12.82L10.96 12.82Q11.42 13.02 11.90 13.02L11.90 13.02L11.90 13.58L8.58 13.58L5.11 9.32L5.11 9.32Q4.76 8.90 4.50 8.76L4.50 8.76L4.50 8.76Q4.24 8.61 4.02 8.61L4.02 8.61L4.02 11.35L4.02 11.35Q4.02 11.87 4.09 12.20L4.09 12.20L4.09 12.20Q4.16 12.53 4.37 12.71L4.37 12.71L4.37 12.71Q4.58 12.89 4.98 12.96L4.98 12.96L4.98 12.96Q5.38 13.02 6.05 13.02L6.05 13.02L6.05 13.58L0.49 13.58L0.49 13.02L0.49 13.02Q0.95 13.02 1.24 12.96L1.24 12.96L1.24 12.96Q1.53 12.89 1.69 12.72L1.69 12.72L1.69 12.72Q1.85 12.54 1.90 12.23L1.90 12.23L1.90 12.23Q1.96 11.91 1.96 11.42L1.96 11.42L1.96 4.96L1.96 4.96Q1.96 4.47 1.92 4.16L1.92 4.16L1.92 4.16Q1.88 3.86 1.74 3.69L1.74 3.69L1.74 3.69Q1.60 3.51 1.34 3.45L1.34 3.45L1.34 3.45Q1.08 3.39 0.64 3.36L0.64 3.36L0.64 2.80L5.49 2.80L5.49 2.80Q7.52 2.80 8.62 3.51L8.62 3.51L8.62 3.51Q9.73 4.23 9.73 5.50ZM4.02 3.82L4.02 7.77L4.93 7.77L4.93 7.77Q6.24 7.77 6.90 7.26L6.90 7.26L6.90 7.26Q7.55 6.75 7.55 5.57L7.55 5.57L7.55 5.57Q7.55 4.68 7 4.13L7 4.13L7 4.13Q6.45 3.58 5.49 3.58L5.49 3.58L4.27 3.58L4.27 3.58Q4.02 3.58 4.02 3.82L4.02 3.82ZM18.49 11.79L18.89 12.28L18.89 12.28Q17.61 13.72 15.71 13.72L15.71 13.72L15.71 13.72Q14.84 13.72 14.13 13.45L14.13 13.45L14.13 13.45Q13.43 13.17 12.92 12.68L12.92 12.68L12.92 12.68Q12.42 12.18 12.14 11.49L12.14 11.49L12.14 11.49Q11.86 10.81 11.86 9.97L11.86 9.97L11.86 9.97Q11.86 9.10 12.15 8.38L12.15 8.38L12.15 8.38Q12.45 7.66 12.99 7.13L12.99 7.13L12.99 7.13Q13.52 6.61 14.26 6.31L14.26 6.31L14.26 6.31Q14.99 6.02 15.88 6.02L15.88 6.02L15.88 6.02Q17.36 6.02 18.19 6.82L18.19 6.82L18.19 6.82Q19.01 7.62 19.01 9.06L19.01 9.06L19.01 9.06Q19.01 9.28 18.94 9.33L18.94 9.33L18.94 9.33Q18.87 9.38 18.55 9.38L18.55 9.38L14.04 9.38L14.04 9.38Q13.99 9.51 13.99 9.84L13.99 9.84L13.99 9.84Q13.99 11.21 14.58 12.01L14.58 12.01L14.58 12.01Q15.18 12.81 16.20 12.81L16.20 12.81L16.20 12.81Q16.79 12.81 17.37 12.54L17.37 12.54L17.37 12.54Q17.95 12.28 18.49 11.79L18.49 11.79ZM14.14 8.60L16.17 8.60L16.17 8.60Q16.73 8.60 16.89 8.53L16.89 8.53L16.89 8.53Q17.05 8.47 17.05 8.23L17.05 8.23L17.05 8.23Q17.05 7.62 16.70 7.22L16.70 7.22L16.70 7.22Q16.35 6.83 15.82 6.83L15.82 6.83L15.82 6.83Q15.22 6.83 14.75 7.33L14.75 7.33L14.75 7.33Q14.28 7.83 14.14 8.60L14.14 8.60ZM26.54 11.89L26.91 12.42L26.91 12.42Q26.38 13.01 25.58 13.33L25.58 13.33L25.58 13.33Q24.79 13.65 23.87 13.65L23.87 13.65L23.87 13.65Q23.02 13.65 22.32 13.38L22.32 13.38L22.32 13.38Q21.62 13.10 21.11 12.61L21.11 12.61L21.11 12.61Q20.61 12.12 20.33 11.43L20.33 11.43L20.33 11.43Q20.06 10.74 20.06 9.90L20.06 9.90L20.06 9.90Q20.06 9.03 20.36 8.32L20.36 8.32L20.36 8.32Q20.65 7.60 21.18 7.09L21.18 7.09L21.18 7.09Q21.71 6.58 22.46 6.30L22.46 6.30L22.46 6.30Q23.20 6.02 24.09 6.02L24.09 6.02L24.09 6.02Q24.72 6.02 25.26 6.15L25.26 6.15L25.26 6.15Q25.80 6.27 26.19 6.50L26.19 6.50L26.19 6.50Q26.57 6.72 26.80 7.02L26.80 7.02L26.80 7.02Q27.02 7.32 27.02 7.67L27.02 7.67L27.02 7.67Q27.02 8.08 26.79 8.32L26.79 8.32L26.79 8.32Q26.56 8.55 26.17 8.55L26.17 8.55L26.17 8.55Q25.84 8.55 25.60 8.39L25.60 8.39L25.60 8.39Q25.35 8.22 25.12 7.84L25.12 7.84L25.12 7.84Q24.91 7.50 24.76 7.31L24.76 7.31L24.76 7.31Q24.61 7.11 24.49 7.01L24.49 7.01L24.49 7.01Q24.36 6.90 24.23 6.87L24.23 6.87L24.23 6.87Q24.11 6.83 23.93 6.83L23.93 6.83L23.93 6.83Q23.11 6.83 22.67 7.59L22.67 7.59L22.67 7.59Q22.22 8.34 22.22 9.70L22.22 9.70L22.22 9.70Q22.22 11.16 22.76 11.94L22.76 11.94L22.76 11.94Q23.30 12.73 24.30 12.73L24.30 12.73L24.30 12.73Q24.88 12.73 25.45 12.51L25.45 12.51L25.45 12.51Q26.03 12.29 26.54 11.89L26.54 11.89ZM32.23 10.92L32.23 9.59L32.23 9.59Q31.05 10.12 30.46 10.58L30.46 10.58L30.46 10.58Q29.86 11.03 29.86 11.52L29.86 11.52L29.86 11.52Q29.86 11.93 30.09 12.17L30.09 12.17L30.09 12.17Q30.31 12.40 30.65 12.40L30.65 12.40L30.65 12.40Q30.98 12.40 31.28 12.29L31.28 12.29L31.28 12.29Q31.57 12.17 31.78 11.97L31.78 11.97L31.78 11.97Q31.99 11.77 32.11 11.50L32.11 11.50L32.11 11.50Q32.23 11.23 32.23 10.92L32.23 10.92ZM30.25 9.70L32.23 8.85L32.23 8.26L32.23 8.26Q32.23 7.45 31.94 7.08L31.94 7.08L31.94 7.08Q31.65 6.71 31.05 6.71L31.05 6.71L31.05 6.71Q30.65 6.71 30.44 6.92L30.44 6.92L30.44 6.92Q30.23 7.14 30.04 7.64L30.04 7.64L30.04 7.64Q29.92 7.99 29.69 8.19L29.69 8.19L29.69 8.19Q29.46 8.39 29.05 8.39L29.05 8.39L29.05 8.39Q28.66 8.39 28.45 8.15L28.45 8.15L28.45 8.15Q28.24 7.91 28.24 7.48L28.24 7.48L28.24 7.48Q28.24 6.80 28.97 6.41L28.97 6.41L28.97 6.41Q29.71 6.02 31.19 6.02L31.19 6.02L31.19 6.02Q32.76 6.02 33.43 6.59L33.43 6.59L33.43 6.59Q34.10 7.15 34.10 8.48L34.10 8.48L34.10 11.55L34.10 11.55Q34.10 12.74 34.58 12.74L34.58 12.74L34.58 12.74Q34.85 12.74 35.07 12.56L35.07 12.56L35.28 12.96L35.28 12.96Q35.08 13.31 34.67 13.52L34.67 13.52L34.67 13.52Q34.26 13.72 33.74 13.72L33.74 13.72L33.74 13.72Q33.10 13.72 32.76 13.33L32.76 13.33L32.76 13.33Q32.42 12.94 32.42 12.22L32.42 12.22L32.35 12.22L32.35 12.22Q31.95 12.95 31.30 13.33L31.30 13.33L31.30 13.33Q30.66 13.71 29.83 13.71L29.83 13.71L29.83 13.71Q28.95 13.71 28.42 13.21L28.42 13.21L28.42 13.21Q27.89 12.71 27.89 11.91L27.89 11.91L27.89 11.91Q27.89 11.30 28.43 10.76L28.43 10.76L28.43 10.76Q28.98 10.22 30.25 9.70L30.25 9.70ZM38.50 6.08L38.50 7.07L38.56 7.07L38.56 7.07Q39.48 6.02 40.96 6.02L40.96 6.02L40.96 6.02Q41.78 6.02 42.45 6.31L42.45 6.31L42.45 6.31Q43.13 6.59 43.63 7.10L43.63 7.10L43.63 7.10Q44.13 7.62 44.40 8.32L44.40 8.32L44.40 8.32Q44.67 9.03 44.67 9.87L44.67 9.87L44.67 9.87Q44.67 10.71 44.40 11.41L44.40 11.41L44.40 11.41Q44.13 12.11 43.64 12.63L43.64 12.63L43.64 12.63Q43.15 13.15 42.47 13.43L42.47 13.43L42.47 13.43Q41.79 13.72 40.99 13.72L40.99 13.72L40.99 13.72Q39.63 13.72 38.92 12.80L38.92 12.80L38.86 12.80L38.86 14.74L38.86 14.74Q38.86 15.30 38.92 15.64L38.92 15.64L38.92 15.64Q38.98 15.97 39.16 16.16L39.16 16.16L39.16 16.16Q39.34 16.34 39.67 16.41L39.67 16.41L39.67 16.41Q40.00 16.48 40.54 16.49L40.54 16.49L40.54 17.08L35.71 17.08L35.71 16.49L35.71 16.49Q36.09 16.48 36.33 16.41L36.33 16.41L36.33 16.41Q36.57 16.34 36.70 16.16L36.70 16.16L36.70 16.16Q36.83 15.97 36.88 15.66L36.88 15.66L36.88 15.66Q36.93 15.34 36.93 14.84L36.93 14.84L36.93 9.63L36.93 9.63Q36.93 8.99 36.90 8.41L36.90 8.41L36.90 8.41Q36.88 7.83 36.83 7.59L36.83 7.59L36.83 7.59Q36.76 7.27 36.52 7.14L36.52 7.14L36.52 7.14Q36.27 7.01 35.69 7.01L35.69 7.01L35.69 6.47L38.50 6.08ZM40.88 6.82L40.88 6.82L40.88 6.82Q40.43 6.82 40.03 7.01L40.03 7.01L40.03 7.01Q39.62 7.21 39.38 7.53L39.38 7.53L39.38 7.53Q39.14 7.85 39.02 8.34L39.02 8.34L39.02 8.34Q38.89 8.82 38.89 9.38L38.89 9.38L38.89 10.33L38.89 10.33Q38.89 11.33 39.38 12.03L39.38 12.03L39.38 12.03Q39.91 12.80 40.88 12.80L40.88 12.80L40.88 12.80Q41.73 12.80 42.15 12.09L42.15 12.09L42.15 12.09Q42.56 11.38 42.56 9.90L42.56 9.90L42.56 9.90Q42.56 6.82 40.88 6.82Z"></path></g><defs data-v-423bf9ae=""><linearGradient data-v-423bf9ae="" gradientTransform="rotate(25)" id="85db2bbc-d032-43fb-a0f7-7576071690fd" x1="0%" y1="0%" x2="100%" y2="0%"><stop data-v-423bf9ae="" offset="0%" style="stop-color: rgb(9, 120, 166); stop-opacity: 1;"></stop><stop data-v-423bf9ae="" offset="100%" style="stop-color: rgb(251, 148, 71); stop-opacity: 1;"></stop></linearGradient></defs><g data-v-423bf9ae="" id="242ab5be-c85e-4fc6-8ffe-f1c8ac7f7be9" transform="matrix(1.0868111504448785,0,0,1.0868111504448785,-13.255261890115804,-0.23894260335429607)" stroke="none" fill="url(#85db2bbc-d032-43fb-a0f7-7576071690fd)"><g clip-rule="evenodd"><path d="M12.983 10.59l17.018 88.223-5.872-59.049 29.021-1.892-.054-9.883L64.549 1 53.622 18.977z"></path><path d="M59.389 54.548l5.16-53.541-8.74 39.716-19.612 1.045 1.57 20.462-7.766 36.583 12.057-39.899z"></path><path d="M62.8 67.182l.549-10.453-15.979 3.755-.032 11.797-17.337 26.532 21.68-27.616zM65.711 62.394l14.841-4.731 1.509-12.532-15.899 2.095zM72.07 44.502l10.988-1.417 1.581-10.278-8.079-.373L64.549 1l8.43 30.967z"></path><path d="M87.413 31.294l1.256-9.506-9.544-2.694L64.549 1l14.483 22.437-.422 7z"></path></g></g><!----></svg>